<?xml version="1.0" encoding="UTF-8" standalone="no"?>
<!DOCTYPE svg PUBLIC "-//W3C//DTD SVG 1.1//EN" "http://www.w3.org/Graphics/SVG/1.1/DTD/svg11.dtd">
<svg xmlns="http://www.w3.org/2000/svg" xmlns:xlink="http://www.w3.org/1999/xlink" version="1.1" width="1224.2658pt" height="1717.7658pt" viewBox="0 0 1224.2658 1717.7658">
<g enable-background="new">
<clipPath id="cp0">
<path transform="matrix(.24,0,0,.24,0,0)" d="M 0 0 L 5120.833 0 L 5120.833 7212.309 L 0 7212.309 Z " fill-rule="evenodd"/>
</clipPath>
<g clip-path="url(#cp0)">
<path transform="matrix(.7503052,0,0,.7503052,0,0)" d="M 0 0 L 1638 0 L 1638 2307 L 0 2307 Z " fill="#ffffff"/>
<path transform="matrix(.7503052,0,0,.7503052,0,0)" d="M 11 11 L 1623 11 L 1623 2280 L 11 2280 Z " fill="#ffffff"/>
</g>
<clipPath id="cp1">
<path transform="matrix(.24,0,0,.24,0,0)" d="M 34.388994 34.388994 L 5073.939 34.388994 L 5073.939 7127.8996 L 34.388994 7127.8996 Z " fill-rule="evenodd"/>
</clipPath>
<g clip-path="url(#cp1)">
<path transform="matrix(.7503052,0,0,.7503052,17.257019,17.257019)" d="M -12 -12 L 1600 -12 L 1600 2257 L -12 2257 Z " fill="#fffdfa"/>
</g>
<clipPath id="cp2">
<path transform="matrix(.24,0,0,.24,0,0)" d="M 0 0 L 5120.833 0 L 5120.833 7212.309 L 0 7212.309 Z "/>
</clipPath>
<g clip-path="url(#cp2)">
<clipPath id="cp3">
<path transform="matrix(.24,0,0,.24,0,0)" d="M 34.38899 34.38899 L 5073.939 34.38899 L 5073.939 7127.8996 L 34.38899 7127.8996 Z "/>
</clipPath>
<g clip-path="url(#cp3)">
<clipPath id="cp4">
<path transform="matrix(.24,0,0,.24,0,0)" d="M 59.899663 1700.3745 L 1038.7236 2508.4219 L 338.1505 3357.0577 L -640.67349 2549.01 L 59.899663 1700.3745 Z "/>
</clipPath>
<g clip-path="url(#cp4)">
<clipPath id="cp5">
<path transform="matrix(.24,0,0,.24,0,0)" d="M 59.899663 1700.3745 L 1038.7236 2508.4219 L 338.1505 3357.0577 L -640.67349 2549.01 L 59.899663 1700.3745 Z "/>
</clipPath>
<g clip-path="url(#cp5)">
<path transform="matrix(.52636739,.43453146,-.43529878,.5272969,14.776877,407.60417)" d="M 279.6 209 C 253 237.6 216.6 287.2 189.1 326.5 C 209 276.6 240.20001 203.7 264.6 170.1 C 303.6 116.3 385 95.600009 385 95.600009 L 370.5 74.200008 C 370.5 74.200008 292.6 91.600009 243.7 146 C 223.5 168.5 202.9 212.6 185.79999 256.6 C 196.49999 181 209.69998 94.3 216.49999 74.20001 C 229.19998 36.900014 272.69999 10.000015 272.69999 10.000015 L 249.1 1 C 249.1 1 211 13.7 183.90001 74.2 C 168.00002 109.5 157.20001 208.2 150.90001 284.2 C 145.6 253.90001 140.90001 224.20001 139.50002 207.6 C 135.80002 164.20001 60.500017 101.600009 60.500017 101.600009 L 45 128.4 C 45 128.4 85.5 143.29999 107.9 189.7 C 114.200008 202.7 119.8 223.79999 124.600009 247.5 C 121.600009 244.1 118.3 241.1 114.8 238.3 C 85.6 216.2 6 195.4 6 195.4 L 0 219 C 0 219 45.9 229.9 93 260.7 C 119.3 277.90003 132 309.2 138.2 333.5 C 142.09999 364.2 144.2 387.1 144.2 387.1 L 161.4 384.9 L 174.5 384.9 C 174.5 384.9 248.8 281.59999 305 239.9 C 361.2 198.20001 446.3 194.59999 446.3 194.59999 L 446.3 172.4 C 446.3 172.3 328.5 156.5 279.6 209 Z " fill="#5fb8a3"/>
</g>
</g>
</g>
</g>
<clipPath id="cp6">
<path transform="matrix(.24,0,0,.24,0,0)" d="M 0 0 L 5120.833 0 L 5120.833 7212.309 L 0 7212.309 Z "/>
</clipPath>
<g clip-path="url(#cp6)">
<clipPath id="cp7">
<path transform="matrix(.24,0,0,.24,0,0)" d="M 34.38899 34.38899 L 5073.939 34.38899 L 5073.939 7127.8996 L 34.38899 7127.8996 Z "/>
</clipPath>
<g clip-path="url(#cp7)">
<clipPath id="cp8">
<path transform="matrix(.24,0,0,.24,0,0)" d="M 1854.8933 3356.6768 L 3311.7359 3356.6768 L 3311.7359 4863.5397 L 1854.8933 4863.5397 Z "/>
</clipPath>
<g clip-path="url(#cp8)">
<clipPath id="cp9">
<path transform="matrix(.24,0,0,.24,0,0)" d="M 1854.8933 3356.6768 L 3311.7359 3356.6768 L 3311.7359 4863.5397 L 1854.8933 4863.5397 Z "/>
</clipPath>
<g clip-path="url(#cp9)">
<path transform="matrix(.78716269,.00000000000000019523697,-.00000000000000019533528,.787559,445.67835,805.6024)" d="M 442.9 238.6 C 442.9 360.40003 343.8 459.2 221.4 459.2 C 99 459.2 0 459.2 0 238.6 C 0 116.8 117.3 0 239.6 0 C 361.90003 0 442.9 116.8 442.9 238.6 Z " fill="#ffd9ca"/>
</g>
</g>
</g>
</g>
<clipPath id="cp10">
<path transform="matrix(.24,0,0,.24,0,0)" d="M 0 0 L 5120.833 0 L 5120.833 7212.309 L 0 7212.309 Z "/>
</clipPath>
<g clip-path="url(#cp10)">
<clipPath id="cp11">
<path transform="matrix(.24,0,0,.24,0,0)" d="M 34.38899 34.38899 L 5073.939 34.38899 L 5073.939 7127.8996 L 34.38899 7127.8996 Z "/>
</clipPath>
<g clip-path="url(#cp11)">
<clipPath id="cp12">
<path transform="matrix(.24,0,0,.24,0,0)" d="M 501.8569 3445.0584 L 1786.7546 3445.0584 L 1786.7546 4773.7238 L 501.8569 4773.7238 Z "/>
</clipPath>
<g clip-path="url(#cp12)">
<clipPath id="cp13">
<path transform="matrix(.24,0,0,.24,0,0)" d="M 501.8569 3445.0584 L 1786.7546 3445.0584 L 1786.7546 4773.7238 L 501.8569 4773.7238 Z "/>
</clipPath>
<g clip-path="url(#cp13)">
<path transform="matrix(.6942924,.00000000000000017220271,-.00000000000000017223546,.69442448,120.88231,826.81399)" d="M 442.9 238.6 C 442.9 360.40003 343.8 459.2 221.4 459.2 C 99 459.2 0 459.2 0 238.6 C 0 116.8 117.3 0 239.6 0 C 361.90003 0 442.9 116.8 442.9 238.6 Z " fill="#ffd9ca"/>
</g>
</g>
</g>
</g>
<clipPath id="cp14">
<path transform="matrix(.24,0,0,.24,0,0)" d="M 0 0 L 5120.833 0 L 5120.833 7212.309 L 0 7212.309 Z "/>
</clipPath>
<g clip-path="url(#cp14)">
<clipPath id="cp15">
<path transform="matrix(.24,0,0,.24,0,0)" d="M 34.38899 34.38899 L 5073.939 34.38899 L 5073.939 7127.8996 L 34.38899 7127.8996 Z "/>
</clipPath>
<g clip-path="url(#cp15)">
<clipPath id="cp16">
<path transform="matrix(.24,0,0,.24,0,0)" d="M 3394.3648 3445.0584 L 4679.2629 3445.0584 L 4679.2629 4773.7238 L 3394.3648 4773.7238 Z "/>
</clipPath>
<g clip-path="url(#cp16)">
<clipPath id="cp17">
<path transform="matrix(.24,0,0,.24,0,0)" d="M 3394.3648 3445.0584 L 4679.2629 3445.0584 L 4679.2629 4773.7238 L 3394.3648 4773.7238 Z "/>
</clipPath>
<g clip-path="url(#cp17)">
<path transform="matrix(.6942924,.00000000000000017220271,-.00000000000000017223546,.69442448,815.08419,826.81399)" d="M 442.9 238.6 C 442.9 360.40003 343.8 459.2 221.4 459.2 C 99 459.2 0 459.2 0 238.6 C 0 116.8 117.3 0 239.6 0 C 361.90003 0 442.9 116.8 442.9 238.6 Z " fill="#ffd9ca"/>
</g>
</g>
</g>
</g>
<clipPath id="cp18">
<path transform="matrix(.24,0,0,.24,0,0)" d="M 0 0 L 5120.833 0 L 5120.833 7212.309 L 0 7212.309 Z "/>
</clipPath>
<g clip-path="url(#cp18)">
<clipPath id="cp19">
<path transform="matrix(.24,0,0,.24,0,0)" d="M 34.38899 34.38899 L 5073.939 34.38899 L 5073.939 7127.8996 L 34.38899 7127.8996 Z "/>
</clipPath>
<g clip-path="url(#cp19)">
<clipPath id="cp20">
<path transform="matrix(.24,0,0,.24,0,0)" d="M 193.33499 7522.2658 L -1141.0696 6364.9699 L -30.884736 5084.8859 L 1303.5198 6242.1818 L 193.33499 7522.2658 Z "/>
</clipPath>
<g clip-path="url(#cp20)">
<clipPath id="cp21">
<path transform="matrix(.24,0,0,.24,0,0)" d="M 193.33499 7522.2658 L -1141.0696 6364.9699 L -30.884736 5084.8859 L 1303.5198 6242.1818 L 193.33499 7522.2658 Z "/>
</clipPath>
<g clip-path="url(#cp21)">
<path transform="matrix(-2.145915,-1.8610988,1.8632473,-2.1483923,46.17078,1805.521)" d="M 119.6 142.9 C 118.1 142.79999 116.6 142.5 115.1 142 C 114.4 141.8 113.7 141.5 113 141.2 C 112.3 140.9 111.6 140.5 111 140.2 C 108.4 138.8 106 136.9 104.1 134.59999 C 103.6 133.99999 103.1 133.4 102.6 132.79999 C 102.2 132.19998 101.799999 131.59999 101.4 130.99999 C 100.700008 129.69998 100 128.39998 99.5 126.999988 C 99.2 126.19998 98.9 125.499988 98.6 124.69998 C 98.4 124.19998 98.2 123.69998 98 123.19998 L 97.2 124.999988 C 96.899997 125.59998 96.6 126.19998 96.299999 126.79999 C 95.99999 127.29999 95.6 127.79999 95.2 128.29999 C 94.299999 129.29999 93.399997 130.19998 92.299999 130.99999 C 91.299999 131.79999 90.299999 132.49999 89.299999 133.09999 C 88.299999 133.7 87.1 134.59999 85.99999 135.2 C 84.799999 135.9 83.59999 136.4 82.399997 136.8 C 81.799999 137 81.2 137.2 80.59999 137.3 C 79.99999 137.40001 79.29999 137.6 78.69999 137.6 C 77.99999 137.70001 77.29999 137.70001 76.59999 137.70001 C 75.899997 137.70001 75.29999 137.6 74.69999 137.50002 C 74.09999 137.40001 73.39999 137.30002 72.79999 137.10002 C 72.19999 136.90003 71.499988 136.80002 70.89999 136.70003 C 69.59998 136.40003 68.39999 135.90003 67.19999 135.40003 C 66.09999 134.90003 64.89999 134.40003 63.799989 133.80002 C 62.69999 133.20001 61.599988 132.40003 60.599988 131.60002 C 59.599988 130.80002 58.699987 129.80002 57.899988 128.90003 C 56.999986 128.00003 56.199987 127.00002 55.499986 126.00002 C 54.799985 125.00002 54.099985 123.900028 53.499986 122.800029 C 52.899988 121.70003 52.399988 120.60003 51.999986 119.400028 C 51.599985 118.20003 51.299985 116.900028 50.999986 115.70003 C 50.699987 114.50003 50.399988 113.300029 50.199987 112.10003 C 50.099988 111.300029 49.999986 110.40003 49.899988 109.60003 C 49.299989 110.40003 48.499986 111.10003 47.799989 111.800029 C 46.799989 112.70003 45.69999 113.400028 44.49999 114.10003 C 43.39999 114.70003 42.19999 115.20003 40.99999 115.70003 C 40.69999 115.800029 40.39999 115.900028 40.099988 116.00003 C 39.799985 116.10004 39.399988 116.20003 38.99999 116.30003 C 38.39999 116.50003 37.799989 116.60004 37.19999 116.700038 C 35.99999 117.00004 34.69999 117.10004 33.49999 117.30003 C 32.19999 117.50003 30.999989 117.60004 29.69999 117.60004 L 29.499989 117.60004 C 28.299988 117.60004 26.999989 117.50004 25.799988 117.40004 C 24.499989 117.20004 23.299988 116.90004 22.099987 116.50004 C 20.899987 116.10004 19.799988 115.60004 18.599987 115.00004 C 17.999987 114.700038 17.499987 114.40004 16.899987 114.00004 C 16.299986 113.60004 15.799986 113.200038 15.299986 112.700038 C 14.299986 111.90003 13.499986 111.00004 12.599986 110.10004 C 11.799986 109.10004 10.999986 108.10004 10.299986 107.10004 C 9.599986 106.10004 8.899986 105.00004 8.1999859 103.90004 C 6.8999855 101.70004 5.9999859 99.40004 5.2999856 97.00004 C 4.999985 95.80004 4.6999857 94.50004 4.2999856 93.200038 C 3.8999854 91.90003 3.5999854 90.700038 3.3999854 89.40003 C 3.1999853 88.10003 2.8999854 86.90003 2.6999853 85.60003 C 2.4999853 84.300029 2.5 83.3 2.3 82 C 2 79.5 1.6999999 77 1.3999999 74.6 C 1.2999998 73.4 1.0999999 72.1 .9999999 70.799999 C .89999988 69.49999 .7999999 68.299999 .69999989 67.1 C .59999987 64.799999 .49999989 62.6 .49999989 60.3 C .49999989 59.399999 .3999999 58.6 .3999999 57.7 C .3999999 56.800004 .3999999 55.8 .3999999 54.8 C .3999999 53 .3999999 51.3 .3999999 49.5 C .3999999 48 .2999999 46.4 .2999999 44.8 C .2999999 43.199998 .2999999 41.6 .1999999 40 C .1999999 38.7 .0999999 37.4 .0999999 36.1 C .0999999 34.799997 -.00000010430813 33.5 -.00000010430813 32.3 L -.00000010430813 32.2 L -.00000010430813 32.100004 C 0 29.8 0 27.4 0 25 C 0 23.8 .1 22.6 .1 21.4 C .1 20.199999 .3 18.9 .3 17.6 C .3 16.300002 .4 14.900001 .5 13.5 C .6 12.099999 .6 11 .6 9.8 L .6 9.7 C .6 9.3 .70000007 8.9 1 8.599999 C .90000006 8.4 1 8.1 1.1 7.8 C 1.3000001 7.5 1.5 7.2000005 1.9000001 7.1000006 C 2.2 7.0000007 2.6000002 6.9000008 2.9 6.9000008 C 3.2 6.9000008 3.5 6.8000009 3.8000003 6.8000009 C 4.6000006 6.700001 5.5 6.600001 6.3 6.5000007 C 6.9 6.4000008 7.5 6.3000009 8.1 6.2000005 L 10.1 5.9 L 14.5 5.2000005 C 15.9 5.0000007 17.3 4.8 18.7 4.6000006 L 23 4.1 C 26 3.8 28.9 3.3999999 31.9 3.1 C 34.9 2.8 37.6 2.6 40.4 2.3999999 C 41.9 2.3 43.4 2.1999999 44.9 2.1 C 46.4 2 47.7 1.8999999 49.100004 1.8999999 C 50.500005 1.8999999 52.2 1.7999998 53.800004 1.7999998 C 55.400007 1.7999998 56.800004 1.7999998 58.200006 1.7999998 L 60.800004 1.7999998 C 61.4 1.7999998 62.000005 1.7999998 62.600004 1.7999998 L 66.9 1.7999998 C 69.9 1.7999998 72.9 1.8999999 75.9 1.8999999 L 81 2 C 82.8 2 84.5 2 86.3 2 C 88.9 1.9 91.5 1.8 94 1.7 C 96.5 1.6000002 99.2 1.6 101.7 1.6 C 104.7 1.5 107.7 1.4 110.7 1.3 C 112.2 1.1999999 113.7 1.0999999 115.1 1.0999999 C 116.5 1.0999999 118.1 1.0999999 119.7 1.0999999 C 120.399997 1.0999999 121 1.0999999 121.7 1.0999999 C 123.1 1.0999999 124.5 .9999999 125.899997 .8999999 C 127.29999 .79999998 129 .6999999 130.5 .4999999 C 133.5 .2999999 136.5 .099999908 139.5 .099999908 C 139.9 .099999908 140.4 .099999908 140.8 .1999999 C 141.2 .1999999 141.7 .2999999 142.1 .4999999 C 142.6 .6999999 142.90001 1.3 142.90001 1.8999999 C 143.00002 1.9999999 143.00002 2.1 143.00002 2.1999999 C 143.10002 2.3999999 143.10002 2.4999998 143.10002 2.6999999 C 143.10002 2.7999998 143.10002 2.9999998 143.10002 3.1 C 143.10002 3.2 143.10002 3.3999999 143.10002 3.5 C 143.10002 3.9 143.20003 4.2 143.20003 4.6 L 143.40003 6.6 C 143.50003 8.1 143.60002 9.5 143.80002 11 C 144.00002 12.5 144.10002 13.8 144.30002 15.1 C 144.50002 16.400002 144.60002 18 144.70001 19.5 C 144.90001 22.4 145.20001 25.3 145.40001 28.3 C 145.50002 29.699999 145.6 31.099999 145.6 32.5 C 145.6 33.9 145.8 35.5 145.90001 37 C 146.00002 38.5 146.00002 40 146.1 41.5 C 146.2 43 146.20001 44.4 146.3 45.8 C 146.4 47.199998 146.5 48.7 146.5 50.2 C 146.5 51.7 146.6 53.100004 146.7 54.600004 C 146.79999 56.100004 146.9 57.500005 146.9 59.000005 C 146.9 60.500005 147 62.000005 147 63.500005 C 147 65 147.1 66.3 147.2 67.8 C 147.29999 69.3 147.3 70.600009 147.4 72 C 147.49999 73.399997 147.5 74.8 147.5 76.3 C 147.5 77.8 147.7 79.200008 147.8 80.600009 C 147.90001 82.00001 147.90001 83.50001 148 84.90001 C 148.09999 86.30001 148.2 87.90001 148.4 89.30001 C 148.7 92.30001 148.9 95.20001 149.09999 98.20001 C 149.2 99.70001 149.2 101.10001 149.2 102.60001 C 149.2 104.10001 149.2 105.60001 149.2 107.10001 C 149.2 108.60001 149.2 110.10001 149.09999 111.60001 C 148.99999 113.10001 148.9 114.70001 148.7 116.20001 C 148.4 119.20001 147.8 122.10001 146.9 124.90001 C 146.4 126.30001 145.79999 127.600009 145.09999 128.90001 C 144.4 130.20001 143.59999 131.40001 142.59999 132.6 C 141.59999 133.70001 140.59999 134.8 139.49999 135.8 C 138.49999 136.8 137.39998 137.7 136.29999 138.5 C 135.69998 139 134.99999 139.4 134.4 139.9 C 133.79999 140.29999 133.09999 140.7 132.4 141.09999 C 131.79999 141.4 131.09999 141.7 130.4 141.9 C 129.59999 142.09999 128.9 142.29999 128.09999 142.5 C 127.399997 142.6 126.59999 142.8 125.899997 142.8 C 125.2 142.90001 124.49999 142.90001 123.799999 143 C 123.1 143.09999 122.399997 143.1 121.7 143.1 C 121 143.1 120.4 143 119.6 142.9 Z " fill="#dba35b"/>
</g>
</g>
</g>
</g>
<clipPath id="cp22">
<path transform="matrix(.24,0,0,.24,0,0)" d="M 0 0 L 5120.833 0 L 5120.833 7212.309 L 0 7212.309 Z "/>
</clipPath>
<g clip-path="url(#cp22)">
<clipPath id="cp23">
<path transform="matrix(.24,0,0,.24,0,0)" d="M 34.38899 34.38899 L 5073.939 34.38899 L 5073.939 7127.8996 L 34.38899 7127.8996 Z "/>
</clipPath>
<g clip-path="url(#cp23)">
<clipPath id="cp24">
<path transform="matrix(.24,0,0,.24,0,0)" d="M 4105.3205 2653.1978 L 4822.89 1823.0122 L 5738.2229 2614.179 L 5020.653 3444.3643 L 4105.3205 2653.1978 Z "/>
</clipPath>
<g clip-path="url(#cp24)">
<clipPath id="cp25">
<path transform="matrix(.24,0,0,.24,0,0)" d="M 4105.3205 2653.1978 L 4822.89 1823.0122 L 5738.2229 2614.179 L 5020.653 3444.3643 L 4105.3205 2653.1978 Z "/>
</clipPath>
<g clip-path="url(#cp25)">
<path transform="matrix(.4018632,-.46493183,.46414507,.4011832,998.15029,624.9697)" d="M 89.9 460.1 C 72.2 470 50.1 459 47 439 C 44.3 421.5 40 398.9 33.3 370.2 C 9.5 268.30003 -27.8 229.70001 33.3 177.70001 C 94.399997 125.70001 128.4 305.7 128.4 305.7 C 128.4 305.7 60.4 64.6 152.1 47.6 C 243.80002 30.599999 213.20001 177.70001 213.20001 177.70001 C 213.20001 177.70001 223.4 -3.3 301.5 0 C 379.6 3.3 366 186.8 321.9 227.5 C 321.9 227.5 399.5 180 399.7 268.3 C 399.90003 356.59999 243.80002 349.8 243.80002 349.8 C 243.80002 349.8 376.2 346.4 366 387.19999 C 357.5 421.4 179 410 89.9 460.1 Z " fill="#fc9881"/>
</g>
</g>
</g>
</g>
<clipPath id="cp26">
<path transform="matrix(.24,0,0,.24,0,0)" d="M 0 0 L 5120.833 0 L 5120.833 7212.309 L 0 7212.309 Z "/>
</clipPath>
<g clip-path="url(#cp26)">
<clipPath id="cp27">
<path transform="matrix(.24,0,0,.24,0,0)" d="M 34.38899 34.38899 L 5073.939 34.38899 L 5073.939 7127.8996 L 34.38899 7127.8996 Z "/>
</clipPath>
<g clip-path="url(#cp27)">
<clipPath id="cp28">
<path transform="matrix(.24,0,0,.24,0,0)" d="M 6461.8459 961.6835 L 3686.6993 1974.9009 L 2897.569 -186.48303 L 5672.716 -1199.7003 L 6461.8459 961.6835 Z "/>
</clipPath>
<g clip-path="url(#cp28)">
<clipPath id="cp29">
<path transform="matrix(.24,0,0,.24,0,0)" d="M 6461.8459 961.6835 L 3686.6993 1974.9009 L 2897.569 -186.48303 L 5672.716 -1199.7003 L 6461.8459 961.6835 Z "/>
</clipPath>
<g clip-path="url(#cp29)">
<path transform="matrix(-1.0370126,.37861754,-.378631,-1.0370495,1550.6686,230.75017)" d="M 315.3 3.1 C 326 6.4 335.7 9.7 342.9 15 C 364.8 31 376.6 60.9 382.8 85.2 C 385.9 97.399997 387.3 109.899997 390.3 122 C 393.4 134.6 397.59999 146.9 401.5 159.1 C 407.2 177.3 414 195.6 425 211 C 428.1 215.5 430.7 220.6 434.3 224.9 C 443.4 235.4 453.8 244.79999 465.19999 252.79999 C 472.19999 258 480.49998 261.69999 488.4 266.5 C 491.69999 268.5 495.5 269.4 498.6 271.4 C 503.6 274.4 510 275.6 514.8 278.4 L 518 279.4 C 522.9 282.3 529.4 283.5 534.5 286.5 L 563.1 299.9 C 567 302.19999 571.6 303.1 575.3 305.3 C 579 307.49998 582.6 308.09999 586 310.19999 C 597.4 317.3 607.7 323.4 615.2 332.3 C 618 335.59999 620.7 339.3 623.3 342.8 C 624.1 343.9 624.5 345.5 625.3 346.69999 C 627.5 349.8 629.39999 353.19999 630.89999 356.69999 C 636.89999 374.09999 641.99996 392.49998 642.1 412.9 C 642.1 415.69999 641.39999 417.9 641.3 420.9 C 640.7 430.9 635.8 447 629.89999 455.1 C 624.49996 462.1 617.89999 468.1 610.39999 472.9 C 607.69998 474.5 604.89999 476 601.99996 477.19999 C 594.49996 481.19999 586.5999 484.49998 578.49996 487.19999 C 573.7999 488.69999 568.89999 490.69999 563.99996 491.9 C 538.69998 498.4 510.59996 499.9 482.29994 500.1 C 469.49995 500.1 456.5999 498.4 443.69993 497.9 C 431.19993 497.4 418.79994 494.3 406.0999 493.4 C 401.8999 493.1 397.79994 491.8 393.79994 491.5 L 347.0999 482.5 C 342.19993 482.1 337.79994 480.1 333.3999 479.5 L 316.3999 475.2 C 312.3999 474.80003 307.6999 472.6 303.5999 472.2 L 298.69993 470.6 C 294.69993 470.2 290.4999 467.5 285.9999 467.1 C 279.9999 466.5 272.5999 463.1 266.4999 461.1 C 262.0999 460 257.8999 458.6 253.79991 456.7 C 251.59992 455.40003 248.09992 455.1 246.1999 454 C 242.6999 452 238.29991 451.6 235.1999 449.9 C 232.0999 448.19999 226.79991 447.19999 223.49991 445.19999 L 216.8999 442.8 C 212.3999 440.09999 206.49991 438.59999 202.0999 435.9 L 196.1999 433.5 L 177.79991 424 L 157.39992 411.8 C 143.39992 401.5 129.29991 392.5 116.89992 381.59999 C 98.19992 365.09999 82.999919 346.3 64.39992 329.69999 C 50.09992 316.99998 36.79992 304.69999 26.399918 290.09999 C 19.999918 280.59999 15.099917 270.19999 11.799917 259.19999 C 10.499917 255.19998 8.599917 251.09998 7.499917 246.99999 C 3.799917 232.59999 1.3999171 217.99999 .19991684 203.19998 C -.10008317 199.19998 .49991686 195.69998 .39991684 191.49999 C .39991684 182.19998 2.099917 171.99999 2.799917 162.09999 C 3.099917 158.29999 4.699917 155.29999 5.099917 151.4 C 5.7999169 146.7 7.099917 142 8.699917 137.5 L 10.199917 133 C 13.699917 127.1 15.099916 119.8 18.599917 114.3 C 23.799916 105.600009 29.699917 97.3 36.29992 89.5 C 43.399919 81.5 52.29992 75.5 60.399919 69.4 C 74.999919 58.4 92.39992 48.2 109.79992 42.800004 C 119.499919 39.800004 129.59992 37.800004 139.49993 35.4 C 143.79993 34.4 148.09993 34.5 152.49993 33.4 C 158.29993 32.100004 164.19992 31.2 170.09993 30.600003 C 173.29993 30.300004 177.39994 30.800004 180.49993 30.200003 L 188.09993 25.900002 C 192.99993 23.400002 197.99993 21.2 203.19994 19.300002 C 204.59993 18.800002 205.99994 17.6 207.39994 17.1 C 218.29993 13.400001 229.29993 9.3 240.49994 6.4000008 C 246.69994 4.8000009 252.99994 3.7000006 259.19996 2.2000008 C 261.69996 1.8000008 264.19996 1.5000007 266.79997 1.4000008 C 276.49998 .3000008 286.19996 -.09999919 295.99998 .3000008 L 310 2 C 311.8 2.2 313.8 3.5 315.3 3.1 " fill="#dba35b"/>
</g>
</g>
</g>
</g>
<clipPath id="cp30">
<path transform="matrix(.24,0,0,.24,0,0)" d="M 0 0 L 5120.833 0 L 5120.833 7212.309 L 0 7212.309 Z "/>
</clipPath>
<g clip-path="url(#cp30)">
<clipPath id="cp31">
<path transform="matrix(.24,0,0,.24,0,0)" d="M 34.38899 34.38899 L 5073.939 34.38899 L 5073.939 7127.8996 L 34.38899 7127.8996 Z "/>
</clipPath>
<g clip-path="url(#cp31)">
<clipPath id="cp32">
<path transform="matrix(.24,0,0,.24,0,0)" d="M -1107.3947 -264.72059 L 1385.0856 -1368.9004 L 2244.877 571.91848 L -247.60327 1676.0983 L -1107.3947 -264.72059 Z "/>
</clipPath>
<g clip-path="url(#cp32)">
<clipPath id="cp33">
<path transform="matrix(.24,0,0,.24,0,0)" d="M -1107.3947 -264.72059 L 1385.0856 -1368.9004 L 2244.877 571.91848 L -247.60327 1676.0983 L -1107.3947 -264.72059 Z "/>
</clipPath>
<g clip-path="url(#cp33)">
<path transform="matrix(.9313948,-.41261206,.41253484,.93122056,-265.6136,-63.49292)" d="M 315.3 3.1 C 326 6.4 335.7 9.7 342.9 15 C 364.8 31 376.6 60.9 382.8 85.2 C 385.9 97.399997 387.3 109.899997 390.3 122 C 393.4 134.6 397.59999 146.9 401.5 159.1 C 407.2 177.3 414 195.6 425 211 C 428.1 215.5 430.7 220.6 434.3 224.9 C 443.4 235.4 453.8 244.79999 465.19999 252.79999 C 472.19999 258 480.49998 261.69999 488.4 266.5 C 491.69999 268.5 495.5 269.4 498.6 271.4 C 503.6 274.4 510 275.6 514.8 278.4 L 518 279.4 C 522.9 282.3 529.4 283.5 534.5 286.5 L 563.1 299.9 C 567 302.19999 571.6 303.1 575.3 305.3 C 579 307.49998 582.6 308.09999 586 310.19999 C 597.4 317.3 607.7 323.4 615.2 332.3 C 618 335.59999 620.7 339.3 623.3 342.8 C 624.1 343.9 624.5 345.5 625.3 346.69999 C 627.5 349.8 629.39999 353.19999 630.89999 356.69999 C 636.89999 374.09999 641.99996 392.49998 642.1 412.9 C 642.1 415.69999 641.39999 417.9 641.3 420.9 C 640.7 430.9 635.8 447 629.89999 455.1 C 624.49996 462.1 617.89999 468.1 610.39999 472.9 C 607.69998 474.5 604.89999 476 601.99996 477.19999 C 594.49996 481.19999 586.5999 484.49998 578.49996 487.19999 C 573.7999 488.69999 568.89999 490.69999 563.99996 491.9 C 538.69998 498.4 510.59996 499.9 482.29994 500.1 C 469.49995 500.1 456.5999 498.4 443.69993 497.9 C 431.19993 497.4 418.79994 494.3 406.0999 493.4 C 401.8999 493.1 397.79994 491.8 393.79994 491.5 L 347.0999 482.5 C 342.19993 482.1 337.79994 480.1 333.3999 479.5 L 316.3999 475.2 C 312.3999 474.80003 307.6999 472.6 303.5999 472.2 L 298.69993 470.6 C 294.69993 470.2 290.4999 467.5 285.9999 467.1 C 279.9999 466.5 272.5999 463.1 266.4999 461.1 C 262.0999 460 257.8999 458.6 253.79991 456.7 C 251.59992 455.40003 248.09992 455.1 246.1999 454 C 242.6999 452 238.29991 451.6 235.1999 449.9 C 232.0999 448.19999 226.79991 447.19999 223.49991 445.19999 L 216.8999 442.8 C 212.3999 440.09999 206.49991 438.59999 202.0999 435.9 L 196.1999 433.5 L 177.79991 424 L 157.39992 411.8 C 143.39992 401.5 129.29991 392.5 116.89992 381.59999 C 98.19992 365.09999 82.999919 346.3 64.39992 329.69999 C 50.09992 316.99998 36.79992 304.69999 26.399918 290.09999 C 19.999918 280.59999 15.099917 270.19999 11.799917 259.19999 C 10.499917 255.19998 8.599917 251.09998 7.499917 246.99999 C 3.799917 232.59999 1.3999171 217.99999 .19991684 203.19998 C -.10008317 199.19998 .49991686 195.69998 .39991684 191.49999 C .39991684 182.19998 2.099917 171.99999 2.799917 162.09999 C 3.099917 158.29999 4.699917 155.29999 5.099917 151.4 C 5.7999169 146.7 7.099917 142 8.699917 137.5 L 10.199917 133 C 13.699917 127.1 15.099916 119.8 18.599917 114.3 C 23.799916 105.600009 29.699917 97.3 36.29992 89.5 C 43.399919 81.5 52.29992 75.5 60.399919 69.4 C 74.999919 58.4 92.39992 48.2 109.79992 42.800004 C 119.499919 39.800004 129.59992 37.800004 139.49993 35.4 C 143.79993 34.4 148.09993 34.5 152.49993 33.4 C 158.29993 32.100004 164.19992 31.2 170.09993 30.600003 C 173.29993 30.300004 177.39994 30.800004 180.49993 30.200003 L 188.09993 25.900002 C 192.99993 23.400002 197.99993 21.2 203.19994 19.300002 C 204.59993 18.800002 205.99994 17.6 207.39994 17.1 C 218.29993 13.400001 229.29993 9.3 240.49994 6.4000008 C 246.69994 4.8000009 252.99994 3.7000006 259.19996 2.2000008 C 261.69996 1.8000008 264.19996 1.5000007 266.79997 1.4000008 C 276.49998 .3000008 286.19996 -.09999919 295.99998 .3000008 L 310 2 C 311.8 2.2 313.8 3.5 315.3 3.1 " fill="#fc9881"/>
</g>
</g>
</g>
</g>
<clipPath id="cp34">
<path transform="matrix(.24,0,0,.24,0,0)" d="M 0 0 L 5120.833 0 L 5120.833 7212.309 L 0 7212.309 Z "/>
</clipPath>
<g clip-path="url(#cp34)">
<clipPath id="cp35">
<path transform="matrix(.24,0,0,.24,0,0)" d="M 34.38899 34.38899 L 5073.939 34.38899 L 5073.939 7127.8996 L 34.38899 7127.8996 Z "/>
</clipPath>
<g clip-path="url(#cp35)">
<clipPath id="cp36">
<path transform="matrix(.24,0,0,.24,0,0)" d="M 6182.0476 5427.5417 L 5907.26 7393.6145 L 4374.652 7179.4099 L 4649.4396 5213.337 L 6182.0476 5427.5417 Z "/>
</clipPath>
<g clip-path="url(#cp36)">
<clipPath id="cp37">
<path transform="matrix(.24,0,0,.24,0,0)" d="M 6182.0476 5427.5417 L 5907.26 7393.6145 L 4374.652 7179.4099 L 4649.4396 5213.337 L 6182.0476 5427.5417 Z "/>
</clipPath>
<g clip-path="url(#cp37)">
<path transform="matrix(-.10268406,.7346922,-.7353576,-.10277706,1483.6049,1302.6921)" d="M 315.3 3.1 C 326 6.4 335.7 9.7 342.9 15 C 364.8 31 376.6 60.9 382.8 85.2 C 385.9 97.399997 387.3 109.899997 390.3 122 C 393.4 134.6 397.59999 146.9 401.5 159.1 C 407.2 177.3 414 195.6 425 211 C 428.1 215.5 430.7 220.6 434.3 224.9 C 443.4 235.4 453.8 244.79999 465.19999 252.79999 C 472.19999 258 480.49998 261.69999 488.4 266.5 C 491.69999 268.5 495.5 269.4 498.6 271.4 C 503.6 274.4 510 275.6 514.8 278.4 L 518 279.4 C 522.9 282.3 529.4 283.5 534.5 286.5 L 563.1 299.9 C 567 302.19999 571.6 303.1 575.3 305.3 C 579 307.49998 582.6 308.09999 586 310.19999 C 597.4 317.3 607.7 323.4 615.2 332.3 C 618 335.59999 620.7 339.3 623.3 342.8 C 624.1 343.9 624.5 345.5 625.3 346.69999 C 627.5 349.8 629.39999 353.19999 630.89999 356.69999 C 636.89999 374.09999 641.99996 392.49998 642.1 412.9 C 642.1 415.69999 641.39999 417.9 641.3 420.9 C 640.7 430.9 635.8 447 629.89999 455.1 C 624.49996 462.1 617.89999 468.1 610.39999 472.9 C 607.69998 474.5 604.89999 476 601.99996 477.19999 C 594.49996 481.19999 586.5999 484.49998 578.49996 487.19999 C 573.7999 488.69999 568.89999 490.69999 563.99996 491.9 C 538.69998 498.4 510.59996 499.9 482.29994 500.1 C 469.49995 500.1 456.5999 498.4 443.69993 497.9 C 431.19993 497.4 418.79994 494.3 406.0999 493.4 C 401.8999 493.1 397.79994 491.8 393.79994 491.5 L 347.0999 482.5 C 342.19993 482.1 337.79994 480.1 333.3999 479.5 L 316.3999 475.2 C 312.3999 474.80003 307.6999 472.6 303.5999 472.2 L 298.69993 470.6 C 294.69993 470.2 290.4999 467.5 285.9999 467.1 C 279.9999 466.5 272.5999 463.1 266.4999 461.1 C 262.0999 460 257.8999 458.6 253.79991 456.7 C 251.59992 455.40003 248.09992 455.1 246.1999 454 C 242.6999 452 238.29991 451.6 235.1999 449.9 C 232.0999 448.19999 226.79991 447.19999 223.49991 445.19999 L 216.8999 442.8 C 212.3999 440.09999 206.49991 438.59999 202.0999 435.9 L 196.1999 433.5 L 177.79991 424 L 157.39992 411.8 C 143.39992 401.5 129.29991 392.5 116.89992 381.59999 C 98.19992 365.09999 82.999919 346.3 64.39992 329.69999 C 50.09992 316.99998 36.79992 304.69999 26.399918 290.09999 C 19.999918 280.59999 15.099917 270.19999 11.799917 259.19999 C 10.499917 255.19998 8.599917 251.09998 7.499917 246.99999 C 3.799917 232.59999 1.3999171 217.99999 .19991684 203.19998 C -.10008317 199.19998 .49991686 195.69998 .39991684 191.49999 C .39991684 182.19998 2.099917 171.99999 2.799917 162.09999 C 3.099917 158.29999 4.699917 155.29999 5.099917 151.4 C 5.7999169 146.7 7.099917 142 8.699917 137.5 L 10.199917 133 C 13.699917 127.1 15.099916 119.8 18.599917 114.3 C 23.799916 105.600009 29.699917 97.3 36.29992 89.5 C 43.399919 81.5 52.29992 75.5 60.399919 69.4 C 74.999919 58.4 92.39992 48.2 109.79992 42.800004 C 119.499919 39.800004 129.59992 37.800004 139.49993 35.4 C 143.79993 34.4 148.09993 34.5 152.49993 33.4 C 158.29993 32.100004 164.19992 31.2 170.09993 30.600003 C 173.29993 30.300004 177.39994 30.800004 180.49993 30.200003 L 188.09993 25.900002 C 192.99993 23.400002 197.99993 21.2 203.19994 19.300002 C 204.59993 18.800002 205.99994 17.6 207.39994 17.1 C 218.29993 13.400001 229.29993 9.3 240.49994 6.4000008 C 246.69994 4.8000009 252.99994 3.7000006 259.19996 2.2000008 C 261.69996 1.8000008 264.19996 1.5000007 266.79997 1.4000008 C 276.49998 .3000008 286.19996 -.09999919 295.99998 .3000008 L 310 2 C 311.8 2.2 313.8 3.5 315.3 3.1 " fill="#5fb8a3"/>
</g>
</g>
</g>
</g>
<clipPath id="cp38">
<path transform="matrix(.24,0,0,.24,0,0)" d="M 2310.6182 2103.4337 L 2798.3167 2103.4337 L 2798.3167 2200.348 L 2310.6182 2200.348 Z " fill-rule="evenodd"/>
</clipPath>
<g clip-path="url(#cp38)">
<path transform="matrix(.21830645,0,0,.21697259,555.0354,504.91084)" d="M 5.2 106.8 C 2.4999998 105.3 1.4999998 102.8 1.3999999 99.8 C 1.1 92.2 .8 84.6 .4 77 C -.3 61.4 0 45.8 .3 30.2 C .20000002 28.400002 1.1 26.6 2.7 25.7 C 11.599999 19.900002 21.7 16.400002 32.3 15.500001 C 44.3 14.500001 56.3 13.500001 68.3 11.900002 C 74.600009 11.000002 81 10.800001 87.4 10.300001 C 99.200008 9.400002 111 8.500001 122.8 7.500001 C 130.2 6.900001 137.6 5.800001 145 5.300001 C 151.7 4.800001 158.4 4.6000015 165.1 4.7000014 C 172.70001 4.800001 180.3 5.300001 187.8 6.000001 C 192.2 6.400001 196.6 7.700001 201 8.500001 C 209.3 10.100001 217.8 11.000001 226.2 11.1 C 237.2 11.200001 248.3 11.3 259.3 11.200001 C 263.4 11.200001 267.59999 10.800001 271.8 10.700001 C 283.3 10.500001 294.8 10.300001 306.3 10.200001 C 323.8 10.200001 341.3 8.500001 358.5 5.100001 C 368.5 3.300001 378.6 2.2000008 388.7 2.000001 C 398.5 1.600001 408.30003 .90000095 418.1 .3000009 C 427 -.39999909 436 -.39999909 444.9 .3000009 C 451.1 .90000095 457.4 1.1000009 463.5 2.000001 C 472.7 3.400001 482 3.300001 491.3 3.700001 C 499.4 4.000001 507.59999 4.800001 515.6 5.900001 C 518.1 6.100001 520.5 6.2000014 523 6.100001 C 524 6.100001 525.1 5.900001 526.1 5.900001 C 529.6 5.7000014 531.8 7.800001 531.8 11.300001 C 531.8 22.800002 532 34.300004 531.6 45.800004 C 531.3 55.200006 530.39999 64.600009 529.8 74 C 529.7 75.3 528.89999 76.4 527.8 77.1 C 524.7 79.299999 521.2 80.7 517.39999 81.1 C 516.69998 81.2 515.99996 81.2 515.19998 81.2 C 507.59996 81 500.29997 82.5 492.89997 84.1 C 482.39997 86.5 471.59999 87.6 460.79997 87.299999 C 450.59996 86.899997 440.39997 86.299999 430.09996 85.99999 C 421.99995 85.69999 413.79997 85.799999 405.59996 85.69999 C 393.09996 85.59999 380.49995 85.69999 367.99995 85.29999 C 359.89994 85.09999 351.69996 84.29999 343.59996 83.59999 C 333.69996 82.69999 323.79997 82.69999 313.89994 83.69999 C 306.29994 84.49999 298.59996 85.09999 290.99995 86.09999 C 283.09996 87.19999 275.19996 88.79999 267.39994 90.29999 C 255.79993 92.499988 244.19994 94.999988 232.59993 96.89999 C 223.49993 98.39999 214.39994 99.29999 205.19994 100.09998 C 179.19994 102.39999 153.09995 101.59998 126.99994 101.499988 C 118.39994 101.499988 109.699939 100.999988 101.09994 101.19998 C 90.699939 101.499988 80.29994 102.29998 69.99994 102.79998 C 60.79994 103.19998 51.599939 103.49998 42.39994 103.89998 C 33.39994 104.19998 24.49994 104.49998 15.599941 104.99998 C 13.199942 105.29998 10.899941 105.79998 8.599941 106.39998 L 5.2 106.8 Z " fill="#dba35b"/>
</g>
<clipPath id="cp39">
<path transform="matrix(.24,0,0,.24,0,0)" d="M 34.38899 34.38899 L 5073.939 34.38899 L 5073.939 7127.8996 L 34.38899 7127.8996 Z " fill-rule="evenodd"/>
</clipPath>
<g clip-path="url(#cp39)">
<g id="Layer-1" data-name="P">
</g>
<text fill="#dd6c52" xml:space="preserve" transform="matrix(.34462837 0 0 .34462837 216.57486 575.11746)" font-size="113.33" font-family="Unnamed"><tspan y="121" x="668.3594 765.0314 891.36349 949.85366 1018.85769 1051.3399 1135.4506 1233.6166 1330.2886 1400.7866 1479.0317 1561.5377">MWEB COMPANY</tspan></text>
<g id="Layer-1" data-name="P">
</g>
<text fill="#99621b" xml:space="preserve" transform="matrix(.30701194 0 0 .30701194 189.16487 295.43077)" font-size="199.94" font-family="Unnamed"><tspan y="205" x="515.53128"> </tspan></text>
<g id="Layer-1" data-name="P">
</g>
<text fill="#99621b" xml:space="preserve" transform="matrix(.30701194 0 0 .30701194 189.16487 295.43077)" font-size="199.94" font-family="Unnamed"><tspan y="205" x="579.46878 806.1557 968.312 1122.8535 1239.6139 1303.5588 1458.1004 1606.4915 1734.0883 1798.0331 1978.5431 2140.8946">WHAT ARE OUR</tspan></text>
<g id="Layer-1" data-name="P">
</g>
<text fill="#99621b" xml:space="preserve" transform="matrix(.30701194 0 0 .30701194 189.16487 295.43077)" font-size="199.94" font-family="Unnamed"><tspan y="466" x="845.6094 973.792 1101.3888 1249.7799 1404.7119 1474.3191 1637.647 1765.2438">SERVICES</tspan></text>
<text fill="#99621b" xml:space="preserve" transform="matrix(.30701194 0 0 .30701194 189.16487 295.43077)" font-size="199.94" font-family="Unnamed"><tspan y="466" x="1893.4264">:</tspan></text>
<g id="Layer-1" data-name="P">
</g>
<text fill="#99621b" xml:space="preserve" transform="matrix(.27572657 0 0 .27572657 161.1605 914.673)" font-size="117.33" font-family="Unnamed"><tspan y="126" x="51.78125 123.62181 193.85828 254.18373 287.81245 353.29396 412.41633 474.174 507.80274 542.9783 609.43368 668.556 709.8042">You can learn</tspan></text>
<g id="Layer-1" data-name="P">
</g>
<text fill="#99621b" xml:space="preserve" transform="matrix(.27572657 0 0 .27572657 161.1605 914.673)" font-size="117.33" font-family="Unnamed"><tspan y="290" x="41.4375 103.195178 173.43164 265.438 299.0667 339.1691 409.40559 443.0343 508.51579 549.7639 616.21939 675.34176 715.4441">how to create</tspan></text>
<g id="Layer-1" data-name="P">
</g>
<text fill="#99621b" xml:space="preserve" transform="matrix(.27572657 0 0 .27572657 161.1605 914.673)" font-size="117.33" font-family="Unnamed"><tspan y="454" x="43.296876 135.3032 201.75859 274.9168 323.03968 348.87709 388.97947 455.43486 503.5577 537.1864 571.78909 613.03726 683.2737">websites from</tspan></text>
<g id="Layer-1" data-name="P">
</g>
<text fill="#99621b" xml:space="preserve" transform="matrix(.27572657 0 0 .27572657 161.1605 914.673)" font-size="117.33" font-family="Unnamed"><tspan y="618" x="268.23439 341.39259 376.5681 435.6905 497.44819">blank</tspan></text>
<g id="Layer-1" data-name="P">
</g>
<text fill="#dd6c52" xml:space="preserve" transform="matrix(.34462837 0 0 .34462837 191.14949 1256.6123)" font-size="150.66" font-family="Unnamed"><tspan y="161" x="62.640626 193.14072 270.60218 323.56727 366.74855 460.46733 564.48489 660.4841 735.8122 845.4941 923.24978 1019.24899">Our PARTNERS</tspan></text>
<text fill="#dd6c52" xml:space="preserve" transform="matrix(.34462837 0 0 .34462837 191.14949 1256.6123)" font-size="150.66" font-family="Unnamed"><tspan y="161" x="1102.3748">'</tspan></text>
<text fill="#dd6c52" xml:space="preserve" transform="matrix(.34462837 0 0 .34462837 191.14949 1256.6123)" font-size="150.66" font-family="Unnamed"><tspan y="161" x="1129.4458 1172.6271 1234.4197 1310.3363 1354.7681 1440.1007 1491.5945"> safety</tspan></text>
<g id="Layer-1" data-name="P">
</g>
<text fill="#dd6c52" xml:space="preserve" transform="matrix(.34462837 0 0 .34462837 191.14949 1256.6123)" font-size="150.66" font-family="Unnamed"><tspan y="161" x="1571.1094 1614.2907 1647.4674 1709.26 1752.4413 1842.629 1920.0905 1973.0556 2016.2368 2110.1763 2163.1414 2196.318 2286.5059 2339.471 2372.6478 2424.1417"> is our priority</tspan></text>
<text fill="#dd6c52" xml:space="preserve" transform="matrix(.34462837 0 0 .34462837 191.14949 1256.6123)" font-size="150.66" font-family="Unnamed"><tspan y="161" x="2503.6629">!</tspan></text>
<g id="Layer-1" data-name="P">
</g>
<text fill="#ad7225" xml:space="preserve" transform="matrix(.34462837 0 0 .34462837 277.42729 1409.1975)" font-size="113.33" font-family="Unnamed"><tspan y="121" x="528.5625 625.2345 693.0764 732.91836 797.1081 829.59036 854.5469 914.1991 947.6221 1015.464 1055.3059 1148.7684 1205.8753 1244.6104 1269.5669 1337.4088 1397.061 1429.5432 1486.6499">More information at</tspan></text>
<g id="Layer-1" data-name="P">
</g>
<text fill="#ad7225" xml:space="preserve" transform="matrix(.34462837 0 0 .34462837 277.42729 1409.1975)" font-size="113.33" font-family="Unnamed"><tspan y="279" x="244.32813 337.79066 426.66029 490.85005 561.51419 629.3561 662.77908 696.202 721.15859 784.4076 809.36416 866.4709">mwebofficial</tspan></text>
<text fill="#ad7225" xml:space="preserve" transform="matrix(.34462837 0 0 .34462837 277.42729 1409.1975)" font-size="113.33" font-family="Unnamed"><tspan y="279" x="900.4472">.</tspan></text>
<text fill="#ad7225" xml:space="preserve" transform="matrix(.34462837 0 0 .34462837 277.42729 1409.1975)" font-size="113.33" font-family="Unnamed"><tspan y="279" x="938.90579 1032.3683 1092.1865 1138.6687 1177.4038 1217.2457 1242.2023 1297.8703 1322.8268 1382.479 1452.811 1486.7874">mystrikingly</tspan></text>
<text fill="#ad7225" xml:space="preserve" transform="matrix(.34462837 0 0 .34462837 277.42729 1409.1975)" font-size="113.33" font-family="Unnamed"><tspan y="279" x="1546.6056">.</tspan></text>
<text fill="#ad7225" xml:space="preserve" transform="matrix(.34462837 0 0 .34462837 277.42729 1409.1975)" font-size="113.33" font-family="Unnamed"><tspan y="279" x="1585.0641 1648.3131 1716.155">com</tspan></text>
<g id="Layer-1" data-name="P">
</g>
<text fill="#99621b" xml:space="preserve" transform="matrix(.2770256 0 0 .2770256 486.333 958.62106)" font-size="116" font-family="Unnamed"><tspan y="120" x="80.484378 210.60692 277.12205 311.18208 376.7343 435.99946 497.87007 531.9301 597.48239 639.0756 705.59078 764.8559 805.31637">We can create</tspan></text>
<g id="Layer-1" data-name="P">
</g>
<text fill="#99621b" xml:space="preserve" transform="matrix(.2770256 0 0 .2770256 486.333 958.62106)" font-size="116" font-family="Unnamed"><tspan y="274" x="116.59375 178.63426 248.88767 309.34223 343.40229 405.4428 475.69624 536.1508 577.7441 611.80416 682.05758 773.8344">you your own</tspan></text>
<g id="Layer-1" data-name="P">
</g>
<text fill="#99621b" xml:space="preserve" transform="matrix(.2770256 0 0 .2770256 486.333 958.62106)" font-size="116" font-family="Unnamed"><tspan y="428" x="269.57814 361.35499 427.87013 501.0122 549.40237 575.7593 616.2197">website</tspan></text>
<g id="Layer-1" data-name="P">
</g>
<text fill="#99621b" xml:space="preserve" transform="matrix(.2770256 0 0 .2770256 840.43667 914.4189)" font-size="116" font-family="Unnamed"><tspan y="124" x="58.578126 187.80214 253.45815 286.63417 351.36216 409.71015 470.72615 503.90214 568.6301 609.3461 675.00216 733.35018 772.9062">We can create</tspan></text>
<g id="Layer-1" data-name="P">
</g>
<text fill="#99621b" xml:space="preserve" transform="matrix(.2770256 0 0 .2770256 840.43667 914.4189)" font-size="116" font-family="Unnamed"><tspan y="286" x="87.59375 148.72576 218.09375 277.71775 310.89375 369.24174 402.41773 493.36174 559.0177 631.2857 678.8457 704.3657 743.92178">you a website</tspan></text>
<g id="Layer-1" data-name="P">
</g>
<text fill="#99621b" xml:space="preserve" transform="matrix(.2770256 0 0 .2770256 840.43667 914.4189)" font-size="116" font-family="Unnamed"><tspan y="448" x="26.125 84.47301 145.48902 217.75702 250.93302 290.489 348.837 405.793 471.449 504.625 569.353 627.70108 668.41708 734.07308 767.2491 836.61709">and take care of</tspan></text>
<g id="Layer-1" data-name="P">
</g>
<text fill="#99621b" xml:space="preserve" transform="matrix(.2770256 0 0 .2770256 840.43667 914.4189)" font-size="116" font-family="Unnamed"><tspan y="610" x="71.40625 96.926258">it</tspan></text>
<text fill="#99621b" xml:space="preserve" transform="matrix(.2770256 0 0 .2770256 840.43667 914.4189)" font-size="116" font-family="Unnamed"><tspan y="610" x="136.48226">'</tspan></text>
<text fill="#99621b" xml:space="preserve" transform="matrix(.2770256 0 0 .2770256 840.43667 914.4189)" font-size="116" font-family="Unnamed"><tspan y="610" x="157.24625 204.80625 237.98224 296.33024 331.01423 365.6982 398.8742 471.1422 530.76626 578.32626 603.84628 664.86227 730.51828 778.07827">s all business</tspan></text>
<g id="Layer-1" data-name="P">
</g>
<text fill="#99621b" xml:space="preserve" transform="matrix(.6330503 0 0 .6330503 193.86945 790.9561)" font-size="133.22" font-family="Unnamed"><tspan y="143" x="87.734378 137.88655">1.</tspan></text>
<g id="Layer-1" data-name="P">
</g>
<text fill="#99621b" xml:space="preserve" transform="matrix(.6330503 0 0 .6330503 537.1388 790.9561)" font-size="133.22" font-family="Unnamed"><tspan y="143" x="83.28125 165.3721">2.</tspan></text>
<g id="Layer-1" data-name="P">
</g>
<text fill="#99621b" xml:space="preserve" transform="matrix(.6330503 0 0 .6330503 900.3146 790.9561)" font-size="133.22" font-family="Unnamed"><tspan y="143" x="70.265628 151.96619">3.</tspan></text>
</g>
<clipPath id="cp40">
<path transform="matrix(.24,0,0,.24,0,0)" d="M 0 0 L 5120.833 0 L 5120.833 7212.309 L 0 7212.309 Z " fill-rule="evenodd"/>
</clipPath>
<g clip-path="url(#cp40)">
<path transform="matrix(.7503052,0,0,.7503052,0,0)" d="M 23 0 L 24 0 L 24 11 L 23 11 Z "/>
<path transform="matrix(.7503052,0,0,.7503052,0,0)" d="M 0 23 L 11 23 L 11 24 L 0 24 Z "/>
<path transform="matrix(.7503052,0,0,.7503052,0,0)" d="M 1610 0 L 1611 0 L 1611 11 L 1610 11 Z "/>
<path transform="matrix(.7503052,0,0,.7503052,0,0)" d="M 1623 23 L 1634 23 L 1634 24 L 1623 24 Z "/>
<path transform="matrix(.7503052,0,0,.7503052,0,0)" d="M 23 2280 L 24 2280 L 24 2292 L 23 2292 Z "/>
<path transform="matrix(.7503052,0,0,.7503052,0,0)" d="M 0 2268 L 11 2268 L 11 2269 L 0 2269 Z "/>
<path transform="matrix(.7503052,0,0,.7503052,0,0)" d="M 1610 2280 L 1611 2280 L 1611 2292 L 1610 2292 Z "/>
<path transform="matrix(.7503052,0,0,.7503052,0,0)" d="M 1623 2268 L 1634 2268 L 1634 2269 L 1623 2269 Z "/>
</g>
</g>
</svg>
