<svg id="Layer_1" data-name="Layer 1" xmlns="http://www.w3.org/2000/svg" viewBox="0 0 300 172"><defs><style>.cls-1{fill:#44b9b5;}.cls-2{fill:#010101;}.cls-3{fill:#4956a2;}</style></defs><path class="cls-1" d="M121.65,87.24a8.18,8.18,0,0,1,6.11,2.43,8.47,8.47,0,0,1,2.37,6.16q0,6.23-6.44,8.94L88.05,119.7l35.07,15.84q6.9,3.06,6.9,9.17a9.86,9.86,0,0,1-2.43,6.73,8.22,8.22,0,0,1-6.51,2.77,14.45,14.45,0,0,1-6.44-1.7l-46.27-23Q61.8,126.26,61.8,120t6.57-9.39L116,88.48l.46-.11A12.81,12.81,0,0,1,121.65,87.24Z" transform="translate(-10 -74)"/><path class="cls-1" d="M149.78,154.32h0a8.24,8.24,0,0,1-7.92-10.51L160.21,80a8.23,8.23,0,0,1,7.92-6h.63a8.23,8.23,0,0,1,7.89,10.58l-19,63.85A8.23,8.23,0,0,1,149.78,154.32Z" transform="translate(-10 -74)"/><path class="cls-1" d="M198.35,87.24a14.21,14.21,0,0,1,5.77,1.24l47.4,22.17q6.67,3.28,6.68,9.39a9.6,9.6,0,0,1-1.81,5.55,11.66,11.66,0,0,1-4.76,4l-46.38,23a14.26,14.26,0,0,1-6.33,1.7,8.43,8.43,0,0,1-6.4-2.43,8.61,8.61,0,0,1-2.32-6.17q0-5.66,7-9.16t18.21-8.32q11.31-4.8,17.54-7.75l-36.66-15.61q-6.44-2.82-6.44-8.94a8.47,8.47,0,0,1,2.37-6.16A8.18,8.18,0,0,1,198.35,87.24Z" transform="translate(-10 -74)"/><path class="cls-2" d="M62.34,246V209l-12,27.39H38.85L27.54,209.79V246H10V173.62H27.06l17.74,42.7,18.13-42.7H79.69V246Z" transform="translate(-10 -74)"/><polygon class="cls-3" points="138.32 142.32 128.86 107.03 114.73 107.03 105.57 142.71 95.82 99.63 76.91 99.63 96.5 171.95 112 171.95 121.55 136.28 131.2 171.95 147.29 171.95 166.39 99.63 147.87 99.63 138.32 142.32"/><polygon class="cls-3" points="172.54 171.95 224.9 171.95 224.9 158.63 172.54 158.53 172.54 171.95"/><polygon class="cls-3" points="215.43 129.12 172.54 129.02 172.54 142.35 215.43 142.4 215.43 129.12"/><polygon class="cls-3" points="172.54 113.89 224.99 113.89 224.99 100.56 172.54 100.61 172.54 113.89"/><path class="cls-3" d="M300.05,208.3q4.81-3.18,5.14-12.7-1-19.95-19-21H248.27l.1,14.27h15.56l18.8-.09q8.47.28,8.71,5.52-.24,8.76-8.85,8.9L265,203.12H248.37v14.23h37.69q9.9.28,10.14,7.14-.24,10.19-10.28,10.32l-25.08.05H248.37V246l40.07.05q20.61-1.19,21.56-21.37Q309.43,214.58,300.05,208.3Z" transform="translate(-10 -74)"/></svg>